 <svg version="1.0" xmlns="http://www.w3.org/2000/svg"
   width="230" height="400" 
   viewBox="0 0 350 170" 
    preserveAspectRatio="xMidYMid meet">  
    <g transform="translate(0.000000,348.000000) 
    scale(0.13,-0.13)" fill="WHITE" 
    stroke="white"> 
    <path d="M989 3027 c-140 -39 -217 -134 -229 -282 -4 -44 -5 -82 -3 -84 1 -2 12 8 24 23 32 41 75 58 161 63 l78 6 0 -45 0 -46 -67 -7 c-40 -4 -87 -17 -113 -31 -88 -46 -79 10 -82 -548 -2 -273 0 -496 4 -496 3 0 4 -10 1 -22 -4 -19 -3 -20 6 -8 6 8 8 23 5 33 -14 45 118 107 201 94 17 -3 33 -6 38 -6 4 -1 7 -21 7 -46 l0 -45 -59 0 c-66 0 -126 -18 -171 -51 l-30 -23 0 -212 0 -212 28 -53 c31 -60 102 -120 167 -143 36 -12 40 -16 38 -44 -2 -17 1 -33 6 -37 9 -5 95 47 106 66 10 15 19 11 90 -42 l68 -52 -5 46 -5 46 471 3 c464 3 472 3 520 26 65 30 129 100 156 172 20 53 21 70 16 206 -3 82 -5 167 -3 189 1 22 2 335 2 695 0 649 0 655 -21 701 -28 59 -85 117 -149 149 l-50 25 -580 2 c-439 2 -591 -1 -626 -10z m1253 -45 c54 -27 103 -78 129 -136 17 -39 19 -80 19 -696 0 -403 -4 -672 -11 -699 -6 -29 -6 -47 0 -55 6 -7 11 -74 12 -148 2 -130 1 -139 -25 -192 -32 -65 -89 -118 -155 -142 -40 -15 -100 -18 -501 -21 -440 -3 -456 -4 -472 -23 -21 -25 -22 -25 -66 5 -46 31 -55 31 -96 0 -39 -30 -52 -31 -59 -6 -3 12 -31 33 -68 51 -76 38 -114 71 -141 125 -19 36 -21 58 -21 242 0 184 2 205 19 224 10 11 26 18 36 16 11 -3 18 0 18 8 0 12 28 18 135 28 18 2 20 -5 23 -85 3 -81 1 -88 -16 -88 -20 0 -85 -20 -80 -25 2 -2 26 3 53 10 l50 12 2 89 c1 49 2 94 3 99 4 42 0 1348 -4 1353 -3 3 -6 -33 -6 -79 l0 -84 -75 0 c-73 0 -75 1 -75 25 0 41 36 87 92 120 29 17 42 28 28 24 -73 -20 -114 -61 -131 -131 -7 -25 -17 -43 -25 -43 -8 0 -14 -4 -14 -9 0 -5 -9 -11 -20 -14 -18 -5 -19 -2 -14 36 15 103 106 205 202 226 30 6 216 10 483 11 238 0 434 1 435 3 1 1 67 0 146 -3 123 -4 150 -8 190 -28z m-1224 -820 l2 -472 -74 0 c-61 0 -77 3 -86 18 -11 16 -11 16 -6 -1 4 -14 -3 -22 -29 -33 -19 -7 -36 -14 -39 -14 -6 0 -7 798 0 855 5 44 11 54 41 75 30 21 150 51 178 45 6 -1 11 -169 13 -473z m1382 -747 c0 -8 -4 -15 -10 -15 -5 0 -7 7 -4 15 4 8 8 15 10 15 2 0 4 -7 4 -15z"/> <path d="M1106 2371 c2 -343 6 -626 9 -629 8 -8 4 1114 -5 1188 -4 36 -6 -216 -4 -559z"/> <path d="M2053 2959 c-31 -31 -4 -87 84 -174 70 -70 142 -107 172 -88 27 17 26 84 -2 140 -14 26 -33 55 -43 64 -57 50 -185 85 -211 58z m137 -42 c58 -28 105 -91 114 -152 4 -26 6 -49 4 -51 -13 -12 -82 23 -133 68 -56 51 -115 129 -115 154 0 18 76 6 130 -19z"/> <path d="M1960 2939 c0 -36 46 -104 129 -187 74 -76 134 -111 188 -112 l33 0 3 -462 2 -463 0 464 0 464 -54 14 c-76 19 -137 68 -229 183 -29 36 -52 72 -52 80 0 8 -5 22 -10 30 -8 12 -10 10 -10 -11z"/> <path d="M1333 2943 c114 -2 300 -2 415 0 114 1 20 2 -208 2 -228 0 -322 -1 -207 -2z"/> <path d="M1563 2640 c-42 -17 -58 -57 -58 -150 l0 -85 -113 -5 c-109 -5 -115 -6 -138 -33 -30 -35 -31 -76 -3 -111 38 -49 72 -59 170 -51 l89 6 0 -258 c0 -283 1 -287 61 -318 37 -20 72 -11 104 27 l25 30 0 253 c0 221 2 254 16 259 9 3 55 6 103 6 95 0 120 10 146 60 22 42 19 54 -19 94 l-33 36 -107 0 -106 0 0 88 c0 81 -2 90 -27 120 -30 34 -73 46 -110 32z m87 -40 c17 -17 20 -33 20 -125 l0 -105 120 0 c107 0 122 -2 140 -20 27 -27 25 -66 -5 -95 -23 -24 -30 -25 -140 -25 l-115 0 0 -272 c0 -239 -2 -274 -17 -290 -21 -24 -68 -23 -93 2 -19 19 -20 33 -20 293 l0 272 -112 -3 c-117 -2 -123 -1 -161 44 -16 19 -16 24 -2 57 17 42 10 40 160 37 l110 -2 0 112 c0 99 2 113 19 126 28 20 73 17 96 -6z"/> <path d="M2230 1685 c-25 -13 -61 -38 -80 -55 l-35 -31 37 26 c21 15 63 40 95 56 32 15 51 28 43 28 -8 0 -35 -11 -60 -24z"/> <path d="M2269 1637 c-46 -21 -188 -159 -211 -206 l-21 -44 24 -19 c28 -23 74 -19 149 13 57 25 81 50 103 107 37 94 13 174 -44 149z m30 -81 c-10 -103 -62 -154 -171 -170 -59 -9 -72 -2 -56 27 16 31 126 144 172 178 58 43 63 39 55 -35z"/> <path d="M2049 1541 c-54 -55 -56 -58 -34 -58 8 0 12 3 10 7 -3 4 16 28 41 54 25 25 43 46 39 46 -4 0 -30 -22 -56 -49z"/> <path d="M850 1436 c0 -19 3 -37 8 -40 4 -2 6 13 4 35 -5 48 -12 51 -12 5z"/> <path d="M1976 1445 c-9 -13 -16 -31 -16 -39 0 -8 -5 -17 -10 -19 -7 -4 -6 -5 0 -4 10 2 54 87 46 87 -2 0 -11 -11 -20 -25z"/> <path d="M1153 1383 c15 -2 37 -2 50 0 12 2 0 4 -28 4 -27 0 -38 -2 -22 -4z"/> <path d="M1288 1383 c7 -3 16 -2 19 1 4 3 -2 6 -13 5 -11 0 -14 -3 -6 -6z"/> <path d="M1438 1383 c12 -2 30 -2 40 0 9 3 -1 5 -23 4 -22 0 -30 -2 -17 -4z"/> <path d="M1583 1383 c15 -2 39 -2 55 0 15 2 2 4 -28 4 -30 0 -43 -2 -27 -4z"/> <path d="M1748 1383 c34 -2 90 -2 125 0 34 2 6 3 -63 3 -69 0 -97 -1 -62 -3z"/> <path d="M862 1360 c0 -14 2 -19 5 -12 2 6 2 18 0 25 -3 6 -5 1 -5 -13z"/> <path d="M885 1350 c-3 -5 -2 -10 4 -10 5 0 13 5 16 10 3 6 2 10 -4 10 -5 0 -13 -4 -16 -10z"/> <path d="M2259 1337 c-14 -7 -34 -19 -44 -27 -16 -13 -97 -15 -617 -12 -390 2 -612 -1 -637 -8 -46 -12 -106 -74 -116 -119 -16 -74 58 -186 130 -198 27 -4 35 -1 45 17 7 13 10 38 6 59 -3 19 -3 53 1 74 l6 38 96 -3 96 -3 3 -87 c2 -64 7 -90 19 -99 12 -11 104 -13 457 -11 242 2 451 4 463 6 39 4 114 60 140 104 24 41 25 48 19 149 -5 94 -16 135 -35 132 -3 0 -18 -6 -32 -12z m42 -123 c2 -101 0 -114 -20 -142 -12 -18 -43 -44 -69 -59 l-47 -28 -457 -3 -457 -3 -3 103 -3 103 -120 0 -120 0 -3 -97 c-1 -54 -5 -98 -8 -98 -15 0 -63 32 -88 59 -23 24 -30 42 -34 84 -4 47 -1 57 24 86 15 18 38 37 52 42 15 6 275 9 631 9 l606 0 55 28 c30 15 56 27 57 27 1 -1 3 -51 4 -111z"/> <path d="M2230 1219 c-25 -12 -75 -24 -113 -26 -37 -3 -70 -10 -73 -14 -8 -13 115 1 166 19 25 8 52 21 60 29 19 18 13 16 -40 -8z"/> <path d="M1525 1190 c-109 -5 -91 -6 109 -8 132 -1 237 0 234 3 -8 8 -201 10 -343 5z"/> <path d="M2008 1173 c7 -3 16 -2 19 1 4 3 -2 6 -13 5 -11 0 -14 -3 -6 -6z"/> <path d="M1295 1131 c-3 -6 159 -10 426 -11 238 0 436 -3 442 -7 6 -3 2 -12 -8 -20 -15 -10 -100 -13 -419 -14 -263 0 -393 -4 -377 -10 36 -14 780 -6 809 10 24 13 28 31 10 49 -15 15 -873 18 -883 3z"/> <path d="M857 2573 c-4 -3 -7 -180 -7 -391 0 -212 2 -383 4 -381 4 4 14 779 10 779 0 0 -4 -3 -7 -7z"/> <path d="M851 1744 c0 -11 3 -14 6 -6 3 7 2 16 -1 19 -3 4 -6 -2 -5 -13z"/> <path d="M1275 524 c-62 -3 -246 -22 -285 -30 -8 -1 -25 -3 -37 -3 -22 -1 -53 -25 -53 -41 0 -5 10 -16 23 -24 28 -17 90 -30 82 -16 -3 6 -24 13 -46 16 -59 10 -48 35 21 51 160 36 456 45 975 29 189 -6 315 -28 315 -55 0 -14 -67 -34 -145 -42 l-70 -7 85 2 c91 2 143 20 148 49 5 24 -44 43 -133 52 -38 4 -78 9 -89 11 -27 5 -709 12 -791 8z"/> <path d="M1068 403 c12 -2 30 -2 40 0 9 3 -1 5 -23 4 -22 0 -30 -2 -17 -4z"/> <path d="M1138 403 c6 -2 18 -2 25 0 6 3 1 5 -13 5 -14 0 -19 -2 -12 -5z"/> <path d="M1956 402 c-3 -2 -168 -5 -368 -5 -354 -1 -358 -1 -158 -9 113 -4 239 -6 280 -3 41 3 121 6 178 6 56 1 102 5 102 9 0 7 -27 9 -34 2z"/> <path d="M2025 400 c-3 -6 1 -7 9 -4 18 7 21 14 7 14 -6 0 -13 -4 -16 -10z"/> <path d="M1198 393 c7 -3 16 -2 19 1 4 3 -2 6 -13 5 -11 0"/> </g> </svg> 
